<?xml version="1.0" standalone="no"?>
<!DOCTYPE svg PUBLIC "-//W3C//DTD SVG 20010904//EN"
 "http://www.w3.org/TR/2001/REC-SVG-20010904/DTD/svg10.dtd">
<svg version="1.0" xmlns="http://www.w3.org/2000/svg"
 width="1834.000000pt" height="1834.000000pt" viewBox="0 0 1834.000000 1834.000000"
 preserveAspectRatio="xMidYMid meet">
<metadata>
Created by potrace 1.14, written by Peter Selinger 2001-2017
</metadata>
<g transform="translate(0.000000,1834.000000) scale(0.100000,-0.100000)"
fill="#000000" stroke="none">
<path d="M0 9170 l0 -9170 9170 0 9170 0 0 9170 0 9170 -9170 0 -9170 0 0
-9170z m9650 8040 c189 -15 409 -40 525 -60 47 -9 89 -16 235 -40 145 -24 190
-33 270 -51 47 -11 101 -24 120 -29 19 -5 58 -14 85 -20 28 -7 61 -15 75 -20
25 -7 50 -14 140 -40 25 -7 113 -35 195 -62 83 -26 166 -53 185 -59 19 -6 44
-14 55 -19 11 -4 58 -22 105 -40 47 -18 94 -36 105 -40 11 -4 47 -18 80 -31
33 -12 83 -32 110 -45 65 -28 155 -68 230 -102 67 -30 388 -192 450 -227 89
-50 115 -65 180 -104 37 -23 68 -41 70 -41 28 0 588 -383 735 -503 8 -7 51
-41 95 -77 122 -98 263 -219 329 -280 224 -208 261 -244 436 -426 117 -122
249 -267 305 -335 20 -24 44 -53 54 -64 9 -11 43 -54 76 -95 32 -41 62 -77 65
-80 6 -4 85 -110 235 -315 28 -38 73 -104 99 -145 27 -41 70 -107 96 -145 43
-64 81 -127 233 -385 110 -188 336 -649 419 -855 22 -55 46 -113 53 -130 111
-257 265 -729 360 -1103 43 -169 121 -541 144 -692 7 -41 16 -100 22 -130 13
-80 26 -186 43 -350 106 -1020 35 -2030 -209 -2992 -41 -165 -131 -478 -160
-563 -103 -296 -144 -409 -182 -495 -8 -19 -18 -44 -23 -55 -108 -285 -337
-752 -522 -1065 -126 -213 -276 -449 -347 -545 -17 -22 -52 -69 -78 -105 -126
-173 -165 -225 -267 -350 -290 -358 -558 -638 -932 -975 -35 -31 -78 -67 -149
-125 -44 -35 -82 -67 -85 -70 -14 -16 -129 -105 -245 -190 -38 -28 -78 -58
-89 -66 -28 -24 -435 -294 -442 -294 -3 0 -18 -8 -32 -19 -15 -10 -44 -28 -64
-40 -71 -40 -103 -58 -158 -91 -64 -38 -473 -246 -540 -274 -42 -18 -78 -34
-190 -84 -37 -16 -139 -57 -305 -122 -11 -4 -31 -12 -45 -18 -14 -6 -54 -20
-90 -32 -36 -12 -74 -25 -85 -29 -33 -14 -275 -89 -355 -111 -132 -36 -154
-42 -180 -50 -25 -8 -78 -21 -162 -39 -24 -5 -64 -14 -90 -20 -129 -29 -139
-31 -318 -61 -33 -5 -86 -14 -117 -20 -90 -15 -274 -37 -523 -62 -81 -9 -278
-13 -565 -13 -418 0 -527 5 -782 35 -216 26 -262 32 -308 40 -27 4 -78 13
-112 19 -35 6 -91 16 -125 22 -59 10 -88 16 -190 39 -24 5 -68 14 -98 21 -81
18 -249 62 -415 109 -16 5 -46 13 -65 19 -19 5 -82 26 -140 45 -58 20 -121 41
-140 47 -19 6 -44 14 -55 19 -11 4 -108 43 -215 85 -107 42 -215 86 -240 97
-107 48 -148 66 -190 84 -89 38 -467 234 -512 265 -14 11 -28 19 -31 19 -3 0
-42 23 -87 50 -45 28 -83 50 -86 50 -2 0 -42 25 -89 55 -47 30 -124 80 -173
111 -48 31 -118 80 -157 109 -38 28 -124 91 -190 140 -66 49 -125 94 -131 99
-7 6 -20 18 -31 26 -32 26 -128 105 -139 115 -7 5 -31 26 -55 45 -155 125
-534 493 -699 679 -41 46 -79 89 -85 95 -39 42 -146 168 -221 261 -80 98 -143
180 -320 421 -54 73 -249 367 -282 426 -11 18 -50 85 -87 148 -67 114 -83 143
-142 250 -41 74 -213 416 -213 422 0 3 -23 55 -51 114 -28 60 -76 172 -106
249 -30 77 -61 156 -70 175 -28 65 -32 75 -66 175 -19 55 -47 134 -62 175 -26
73 -58 173 -75 235 -4 17 -21 75 -38 130 -71 238 -179 716 -212 940 -6 44 -15
100 -20 125 -13 69 -38 269 -59 475 -45 437 -45 1201 -1 1610 6 50 15 133 21
185 10 98 24 195 39 290 5 30 15 89 21 130 22 147 80 428 130 630 47 186 72
280 131 470 11 36 23 79 28 95 4 17 15 48 23 70 9 22 37 101 62 175 25 74 50
145 55 158 6 12 14 32 19 45 4 12 13 33 19 47 5 14 33 84 62 155 29 72 66 162
84 200 18 39 43 95 57 125 48 111 241 483 325 627 48 81 95 164 106 183 27 46
259 402 273 416 5 7 46 62 90 124 44 62 109 149 145 194 36 45 77 98 92 118
15 20 33 42 40 50 8 7 32 37 55 66 22 28 76 90 118 137 43 47 86 95 97 107
143 168 576 583 773 741 55 45 102 84 105 87 6 7 107 88 146 117 16 12 69 51
119 88 49 37 177 126 284 198 205 137 250 165 399 248 20 12 42 25 47 29 30
23 484 256 575 294 25 11 83 37 130 58 113 52 109 50 235 98 61 23 119 46 130
50 42 17 112 42 155 56 25 8 54 19 65 23 22 9 184 61 255 81 25 7 65 19 90 27
49 16 250 68 320 84 25 5 61 14 80 18 55 13 178 37 255 50 39 7 96 16 128 21
179 30 233 38 407 59 309 38 947 47 1310 21z"/>
<path d="M8845 16819 c-315 -12 -542 -34 -815 -79 -36 -6 -90 -15 -120 -20
-73 -12 -155 -28 -210 -40 -25 -6 -60 -13 -78 -17 -42 -7 -48 -22 -27 -62 53
-103 69 -308 40 -499 -13 -84 -23 -128 -64 -287 -31 -118 -220 -632 -286 -780
-8 -16 -42 -93 -75 -170 -71 -162 -87 -196 -146 -323 -24 -52 -44 -95 -44 -97
0 -1 -22 -49 -49 -106 -26 -57 -60 -129 -74 -159 -46 -102 -99 -214 -140 -300
-22 -47 -52 -112 -67 -145 -15 -33 -44 -96 -65 -140 -20 -44 -57 -123 -80
-175 -24 -52 -55 -121 -69 -152 -65 -145 -83 -185 -166 -373 -48 -110 -100
-229 -115 -265 -15 -36 -37 -87 -49 -115 -18 -39 -110 -267 -206 -510 -29 -74
-56 -148 -135 -380 -42 -126 -133 -449 -165 -590 -52 -230 -72 -354 -91 -575
-18 -205 3 -479 46 -602 8 -24 15 -49 15 -56 0 -25 84 -189 128 -251 61 -85
153 -178 227 -228 56 -37 200 -114 253 -134 12 -5 32 -13 45 -18 62 -25 202
-63 277 -76 185 -31 283 -37 560 -37 162 0 340 5 395 11 55 6 141 16 190 22
210 24 279 33 420 59 28 5 79 14 115 20 168 29 270 52 270 59 0 3 -44 27 -98
54 -160 78 -440 231 -582 317 -546 333 -856 579 -1156 920 -97 111 -227 307
-293 445 -96 199 -151 426 -151 622 0 57 4 123 9 146 5 23 15 76 22 117 15 95
67 256 119 366 22 47 40 88 40 90 0 3 28 50 62 107 60 99 196 287 258 357 153
172 324 340 465 460 165 139 370 300 460 360 28 19 52 37 55 40 9 13 574 383
635 416 11 6 103 61 204 123 101 61 185 111 186 111 2 0 33 18 70 41 37 22 83
49 101 60 55 31 95 54 159 91 33 20 80 47 105 60 25 14 62 35 83 47 20 11 54
31 75 42 20 12 57 33 82 47 25 13 59 32 75 42 17 10 50 29 75 42 95 53 149 83
280 158 74 42 155 88 180 102 25 14 63 35 85 48 22 13 60 34 85 48 25 14 119
68 210 120 91 52 179 102 196 112 17 10 62 37 100 60 38 24 83 50 99 60 332
192 669 455 788 614 68 91 73 164 14 227 -48 53 -142 110 -242 149 -92 36
-151 56 -235 80 -25 7 -56 16 -70 20 -14 4 -45 13 -70 20 -25 7 -56 16 -70 20
-37 11 -99 27 -152 39 -27 6 -69 16 -95 22 -27 5 -64 14 -83 19 -87 22 -129
30 -310 60 -144 24 -180 29 -265 40 -49 6 -120 15 -157 20 -37 6 -93 10 -125
10 -32 0 -96 4 -143 9 -121 14 -491 19 -725 10z"/>
<path d="M7045 16483 c-80 -5 -234 -50 -390 -113 -11 -4 -58 -23 -105 -40 -96
-36 -126 -49 -225 -95 -38 -18 -90 -41 -115 -51 -98 -42 -438 -218 -544 -282
-37 -23 -69 -42 -71 -42 -29 0 -698 -458 -782 -534 -6 -6 -53 -45 -104 -86
-229 -185 -554 -492 -765 -725 -142 -156 -214 -242 -214 -253 0 -7 18 -21 41
-32 52 -27 163 -138 215 -215 52 -78 113 -205 159 -330 20 -55 39 -107 42
-115 3 -8 9 -28 13 -45 5 -16 18 -61 29 -100 25 -81 86 -331 111 -455 63 -303
65 -313 130 -695 51 -301 48 -280 60 -360 6 -38 15 -95 20 -125 9 -50 23 -141
65 -410 9 -52 20 -121 25 -152 6 -32 15 -85 20 -118 6 -33 15 -87 20 -120 14
-84 30 -176 41 -235 5 -27 25 -140 44 -250 19 -110 40 -222 45 -250 6 -27 15
-72 20 -100 6 -27 17 -86 26 -130 9 -44 20 -98 24 -120 29 -157 98 -459 141
-615 11 -41 29 -109 40 -150 51 -194 182 -588 234 -705 8 -19 21 -50 29 -67
50 -116 127 -276 176 -363 27 -48 141 -224 163 -251 182 -223 318 -326 512
-389 111 -36 310 -55 384 -36 20 5 70 17 110 26 157 35 344 111 495 203 37 23
70 42 72 42 7 0 149 97 204 138 25 18 58 43 74 55 220 163 620 539 890 837 72
80 139 154 149 165 17 19 17 20 1 24 -10 2 -43 -2 -73 -9 -62 -13 -115 -23
-208 -39 -137 -24 -181 -31 -253 -41 -41 -6 -100 -15 -130 -20 -51 -8 -104
-14 -336 -40 -120 -13 -725 -13 -833 1 -174 21 -316 46 -406 70 -22 6 -56 14
-75 18 -46 11 -263 98 -320 129 -25 14 -65 36 -90 49 -184 101 -410 341 -490
518 -12 28 -32 73 -45 100 -30 62 -89 275 -104 375 -29 184 -35 328 -22 508
27 368 87 677 217 1117 94 317 263 778 401 1095 26 59 40 92 68 160 15 36 36
84 46 108 36 80 57 127 89 202 33 75 55 124 105 235 15 33 46 103 70 155 64
141 92 204 146 319 27 57 49 105 49 107 0 2 32 69 70 150 39 80 70 147 70 149
0 2 29 65 65 140 36 75 65 137 65 139 0 2 22 50 49 107 69 149 99 214 136 299
18 41 44 100 58 130 48 107 65 146 107 250 23 58 50 124 61 147 10 24 19 49
19 56 0 8 3 17 7 20 15 16 133 371 161 487 39 161 43 187 44 281 1 102 -13
147 -55 173 -25 16 -99 24 -172 19z"/>
<path d="M11997 16102 c-59 -264 -290 -505 -819 -857 -187 -125 -335 -218
-455 -286 -65 -37 -99 -57 -158 -91 -33 -20 -80 -47 -105 -60 -25 -14 -62 -35
-82 -47 -21 -11 -55 -31 -75 -42 -21 -12 -58 -33 -83 -47 -25 -13 -58 -32 -75
-42 -16 -10 -51 -29 -77 -44 -111 -61 -146 -80 -201 -112 -32 -19 -60 -34 -62
-34 -2 0 -30 -15 -62 -34 -32 -18 -78 -45 -103 -58 -25 -14 -63 -35 -85 -48
-22 -13 -60 -34 -85 -48 -37 -21 -191 -109 -337 -193 -50 -29 -99 -57 -140
-80 -21 -12 -42 -25 -48 -29 -5 -4 -27 -17 -47 -29 -99 -55 -115 -65 -140 -82
-14 -11 -29 -19 -33 -19 -3 0 -26 -13 -50 -30 -24 -16 -46 -30 -50 -30 -3 0
-33 -18 -65 -40 -32 -22 -61 -40 -65 -40 -10 0 -490 -314 -594 -389 -483 -349
-821 -662 -1031 -957 -141 -199 -236 -414 -262 -594 -22 -156 2 -372 58 -515
118 -303 387 -614 799 -921 55 -42 107 -81 115 -87 32 -26 229 -157 235 -157
3 0 25 -13 48 -29 40 -27 107 -68 185 -112 109 -63 129 -74 242 -137 91 -50
350 -181 350 -177 0 2 -51 106 -113 232 -61 125 -124 255 -139 288 -15 33 -38
85 -51 115 -14 30 -34 76 -46 102 -11 26 -21 49 -21 53 0 3 -9 27 -21 53 -12
26 -24 56 -29 67 -4 11 -12 32 -19 48 -6 15 -15 38 -21 52 -5 14 -14 35 -19
48 -14 32 -75 210 -101 292 -13 39 -26 79 -30 90 -4 11 -13 40 -20 65 -7 25
-16 56 -21 70 -10 33 -48 192 -60 255 -6 28 -14 73 -20 100 -39 206 -54 433
-40 627 11 161 23 260 40 318 57 204 99 301 198 451 89 135 281 318 408 390
145 81 200 108 305 151 14 6 33 14 42 19 10 5 27 9 37 9 11 0 23 5 26 10 3 6
17 10 30 10 13 0 26 4 29 9 3 5 20 11 38 14 18 3 51 10 73 17 22 6 63 16 90
22 28 5 70 14 95 19 348 73 1173 82 1775 20 161 -17 378 -43 510 -61 39 -5
106 -14 150 -20 44 -7 109 -15 145 -20 257 -34 306 -41 430 -60 214 -33 317
-49 385 -60 62 -10 160 -25 255 -40 30 -5 87 -14 125 -20 92 -15 172 -27 270
-41 44 -5 107 -14 140 -19 33 -5 96 -13 140 -19 79 -10 177 -24 305 -42 152
-21 370 -33 590 -33 224 0 316 8 405 34 22 6 50 14 61 17 12 3 38 18 58 35 34
28 36 32 36 92 0 35 -7 82 -15 105 -31 89 -101 220 -164 306 -102 141 -227
308 -248 330 -10 11 -45 54 -78 95 -231 292 -709 775 -990 1000 -44 35 -82 67
-85 70 -14 16 -129 105 -245 190 -38 28 -78 57 -87 65 -25 21 -372 252 -413
275 -19 11 -52 30 -72 41 -21 12 -50 30 -65 40 -14 11 -29 19 -33 19 -4 0 -19
8 -33 19 -30 20 -205 113 -365 192 -56 28 -110 55 -119 60 -30 15 -33 11 -51
-69z"/>
<path d="M3523 13880 c-117 -27 -306 -264 -564 -707 -86 -147 -258 -478 -314
-603 -16 -36 -45 -101 -66 -145 -159 -346 -385 -1008 -452 -1325 -3 -14 -12
-50 -20 -80 -7 -30 -20 -82 -26 -115 -7 -33 -17 -78 -22 -100 -11 -52 -54
-288 -68 -385 -7 -41 -16 -102 -21 -135 -11 -71 -27 -204 -35 -296 l-6 -65
113 -1 c113 0 174 -11 268 -49 43 -17 65 -28 177 -90 141 -77 342 -235 612
-479 147 -132 1063 -1060 1174 -1189 31 -35 500 -506 749 -751 359 -354 461
-448 777 -715 135 -113 453 -353 539 -405 9 -5 48 -31 87 -56 364 -236 723
-369 1000 -369 154 0 238 18 371 80 232 107 429 331 594 675 124 259 206 511
309 945 30 126 95 490 121 675 6 44 15 107 20 140 5 33 12 96 15 140 l6 80
-53 -60 c-186 -209 -535 -565 -716 -729 -161 -145 -408 -342 -557 -443 -261
-177 -580 -325 -800 -372 -27 -6 -71 -15 -97 -21 -62 -13 -365 -13 -425 1
-145 34 -180 45 -293 98 -131 61 -267 161 -388 285 -92 94 -231 271 -286 364
-82 141 -102 177 -171 317 -99 202 -218 504 -285 720 -34 111 -97 329 -120
415 -12 47 -26 99 -31 115 -25 88 -122 526 -156 705 -3 14 -13 68 -23 120 -11
52 -35 185 -55 295 -19 110 -40 227 -46 260 -6 33 -15 84 -20 113 -5 28 -13
76 -19 105 -11 64 -102 624 -131 807 -5 36 -14 91 -19 123 -6 31 -14 84 -20
117 -5 33 -14 86 -20 118 -5 31 -21 127 -35 212 -51 301 -72 415 -115 620 -12
58 -26 123 -31 145 -6 33 -47 192 -88 350 -32 120 -121 347 -165 421 -70 114
-106 140 -173 124z"/>
<path d="M9879 13256 c-3 -3 -75 -10 -160 -16 -167 -11 -263 -24 -444 -59
-110 -21 -252 -62 -320 -90 -111 -48 -132 -58 -186 -88 -20 -12 -47 -27 -60
-35 -80 -44 -188 -145 -260 -241 -94 -126 -151 -269 -188 -473 -14 -75 -14
-386 -1 -468 5 -33 17 -104 25 -156 17 -107 34 -184 66 -300 65 -244 218 -667
321 -890 17 -36 42 -90 56 -120 110 -240 245 -501 253 -489 4 8 11 39 14 69
21 210 103 714 145 898 6 23 14 61 19 85 72 319 190 707 277 905 47 109 150
310 194 383 163 264 378 481 594 598 56 30 245 95 349 120 58 13 357 15 424 2
26 -6 75 -15 108 -21 60 -11 78 -17 165 -44 43 -14 176 -62 230 -84 56 -22
248 -120 350 -179 140 -81 336 -210 460 -303 192 -144 238 -181 445 -353 81
-69 336 -300 478 -435 189 -179 863 -856 1192 -1197 768 -796 1126 -1138 1355
-1295 19 -13 37 -27 40 -30 5 -5 26 -18 120 -73 141 -82 249 -106 297 -66 22
19 48 77 68 149 33 125 30 636 -5 965 -6 50 -15 133 -20 185 -10 93 -22 180
-40 290 -5 30 -14 87 -21 125 -15 95 -86 446 -105 520 -8 33 -19 76 -24 95
-29 119 -133 482 -151 525 -4 11 -19 54 -33 95 -62 186 -195 529 -272 698 -78
171 -277 562 -286 562 -6 0 -22 -13 -36 -28 -30 -32 -175 -132 -192 -132 -6 0
-18 -4 -28 -9 -22 -12 -121 -38 -227 -60 -119 -24 -591 -20 -860 9 -283 30
-296 32 -480 60 -57 8 -107 15 -292 41 -91 12 -161 23 -258 39 -38 6 -95 15
-125 20 -93 14 -202 31 -260 40 -30 5 -89 14 -130 20 -41 6 -100 15 -130 20
-50 8 -86 13 -275 40 -33 5 -93 13 -132 19 -135 20 -218 32 -295 41 -43 6
-115 15 -160 20 -314 39 -578 67 -758 80 -162 12 -823 25 -831 16z"/>
<path d="M10620 12485 c-298 -57 -559 -295 -758 -691 -76 -150 -171 -385 -202
-499 -5 -16 -20 -68 -34 -115 -27 -92 -82 -300 -95 -365 -62 -292 -94 -471
-131 -740 -11 -82 -25 -183 -31 -223 -6 -41 -9 -76 -6 -78 2 -3 21 15 42 38
286 321 633 666 891 884 255 216 538 406 776 522 47 23 89 42 92 42 3 0 25 9
49 19 70 32 246 82 385 110 70 14 313 14 404 0 40 -7 114 -25 163 -42 395
-130 722 -469 989 -1022 137 -283 215 -493 344 -920 38 -124 119 -438 148
-575 9 -41 20 -91 24 -110 23 -102 33 -149 40 -185 4 -22 15 -74 23 -115 15
-69 65 -332 88 -457 9 -54 21 -117 39 -220 6 -32 15 -83 20 -113 9 -56 80
-481 100 -600 24 -145 30 -178 40 -245 6 -38 15 -95 20 -125 5 -30 16 -98 25
-150 32 -210 76 -478 85 -520 4 -25 14 -74 20 -110 48 -282 146 -734 185 -855
7 -22 20 -67 30 -100 68 -233 179 -444 252 -480 66 -32 151 20 294 181 51 57
223 321 320 491 11 18 29 50 41 71 139 239 328 631 449 929 190 472 331 936
428 1418 37 183 47 238 71 390 25 157 30 195 40 295 6 58 13 121 16 141 l5 36
-118 0 c-106 0 -128 4 -213 33 -104 35 -204 86 -320 163 -66 43 -176 123 -190
137 -3 3 -41 34 -85 70 -224 182 -613 563 -1290 1264 -451 468 -1038 1052
-1271 1266 -130 120 -263 238 -303 270 -24 19 -48 40 -55 45 -139 122 -379
303 -572 432 -82 55 -156 102 -164 106 -8 4 -37 20 -65 37 -188 114 -457 222
-660 265 -84 18 -281 18 -375 0z"/>
<path d="M11650 10989 c-25 -5 -70 -14 -100 -20 -53 -11 -131 -36 -195 -64
-16 -7 -50 -21 -75 -31 -48 -19 -103 -48 -253 -133 -139 -79 -437 -303 -611
-461 -202 -181 -451 -432 -646 -649 -47 -52 -91 -100 -97 -107 -7 -7 -13 -15
-13 -18 0 -10 53 -6 125 9 39 8 113 22 165 30 52 8 120 20 150 25 112 19 173
27 437 60 208 25 364 32 658 27 324 -6 392 -12 620 -56 252 -48 521 -161 688
-288 236 -179 398 -414 484 -703 88 -296 99 -678 31 -1090 -36 -221 -106 -524
-167 -722 -12 -38 -29 -96 -40 -130 -22 -75 -83 -258 -105 -314 -8 -21 -33
-91 -56 -154 -40 -110 -192 -492 -230 -575 -10 -22 -45 -103 -78 -180 -52
-121 -136 -314 -204 -465 -11 -25 -28 -63 -38 -85 -10 -22 -37 -80 -59 -128
-23 -49 -41 -90 -41 -91 0 -2 -27 -61 -60 -130 -33 -70 -60 -128 -60 -130 0
-2 -22 -50 -49 -107 -26 -57 -61 -131 -76 -164 -15 -33 -42 -91 -60 -130 -18
-38 -50 -108 -73 -155 -22 -47 -61 -132 -87 -190 -26 -58 -62 -136 -80 -175
-18 -38 -47 -104 -65 -145 -18 -41 -44 -100 -57 -130 -14 -30 -31 -70 -39 -87
-8 -18 -20 -48 -28 -65 -29 -68 -96 -236 -126 -318 -17 -47 -35 -94 -40 -105
-15 -34 -78 -236 -98 -315 -34 -133 -45 -213 -46 -310 -1 -148 30 -183 163
-183 96 0 272 36 356 72 11 5 81 33 155 62 74 29 171 69 215 89 44 20 100 45
125 56 51 22 426 210 483 243 336 192 512 304 717 454 52 39 120 89 150 111
30 22 71 54 91 71 20 16 44 37 55 45 48 38 180 145 184 150 3 3 70 64 150 136
239 217 700 699 700 733 0 5 -17 18 -37 28 -21 10 -72 50 -113 90 -157 150
-273 406 -391 863 -37 143 -97 413 -120 538 -5 28 -14 78 -20 110 -13 68 -12
64 -78 457 -28 171 -55 335 -61 365 -5 30 -14 87 -20 125 -11 70 -21 133 -40
243 -5 31 -25 156 -45 277 -19 121 -40 247 -46 280 -6 33 -15 85 -20 115 -6
30 -14 78 -19 105 -5 28 -14 77 -20 110 -20 116 -50 272 -91 480 -23 116 -45
228 -49 250 -7 38 -22 105 -40 185 -4 19 -15 69 -24 110 -9 41 -30 127 -47
190 -17 63 -39 147 -49 185 -90 345 -242 757 -375 1020 -192 378 -395 612
-630 725 -55 26 -127 53 -160 60 -33 7 -76 16 -95 21 -44 11 -200 10 -260 -2z"/>
<path d="M1998 9510 c-37 -29 -59 -78 -85 -190 -27 -114 -17 -618 17 -947 22
-211 32 -291 40 -343 5 -30 15 -89 21 -130 16 -110 79 -443 99 -530 35 -148
95 -375 130 -490 18 -58 36 -118 40 -135 41 -153 226 -646 317 -845 19 -41 41
-91 50 -110 46 -106 240 -483 250 -487 7 -3 28 11 48 31 96 97 255 163 470
196 93 14 642 8 790 -8 50 -6 135 -16 190 -21 93 -10 149 -18 300 -41 90 -13
201 -29 285 -40 98 -13 189 -27 270 -40 36 -6 93 -15 128 -20 34 -6 90 -14
125 -20 96 -15 185 -28 262 -40 39 -6 97 -15 130 -20 33 -5 94 -14 135 -20 41
-6 104 -16 140 -21 36 -5 97 -14 135 -19 39 -6 102 -14 140 -20 39 -6 105 -15
148 -20 42 -6 114 -15 160 -21 105 -14 318 -38 517 -59 274 -29 403 -35 780
-35 491 0 634 11 945 75 501 103 829 354 946 725 50 156 59 225 59 430 0 167
-3 206 -31 375 -46 284 -182 731 -310 1017 -10 24 -19 45 -19 48 0 2 -11 28
-24 57 -13 29 -40 91 -61 138 -77 175 -276 570 -285 565 -5 -3 -11 -27 -15
-53 -5 -47 -15 -119 -36 -269 -5 -43 -14 -103 -19 -133 -5 -30 -14 -86 -20
-125 -6 -38 -16 -92 -21 -120 -23 -124 -60 -314 -69 -350 -28 -121 -53 -224
-61 -250 -5 -16 -27 -93 -49 -170 -157 -557 -400 -1012 -678 -1270 -173 -160
-348 -258 -542 -303 -25 -6 -66 -16 -92 -21 -62 -14 -345 -14 -422 0 -132 24
-282 61 -321 78 -11 5 -47 19 -80 32 -102 38 -280 121 -360 167 -16 9 -61 35
-100 56 -65 36 -424 272 -435 285 -3 3 -43 35 -90 70 -149 113 -173 132 -230
179 -30 26 -57 49 -60 52 -3 3 -30 25 -60 50 -30 24 -76 62 -101 85 -25 22
-78 69 -119 105 -143 126 -514 482 -739 710 -334 338 -590 601 -771 790 -230
242 -790 805 -891 896 -121 109 -143 129 -237 207 -175 145 -344 262 -432 297
-19 7 -40 18 -47 23 -7 5 -38 11 -70 14 -49 4 -62 2 -85 -17z"/>
<path d="M10895 9259 c-151 -7 -227 -13 -440 -39 -200 -25 -232 -29 -290 -40
-33 -6 -76 -13 -95 -16 -19 -3 -53 -9 -75 -14 -22 -5 -69 -14 -105 -20 -89
-15 -150 -31 -150 -39 0 -3 44 -27 98 -54 180 -87 511 -269 599 -329 23 -15
44 -28 47 -28 26 0 588 -392 646 -450 3 -3 43 -37 90 -77 90 -75 294 -280 371
-373 144 -172 299 -448 357 -635 84 -270 83 -578 -3 -841 -30 -92 -44 -127
-116 -279 -90 -192 -299 -464 -545 -709 -85 -85 -212 -199 -362 -325 -66 -55
-330 -256 -397 -301 -27 -18 -52 -37 -55 -40 -7 -9 -317 -216 -400 -267 -36
-22 -103 -64 -150 -93 -47 -29 -98 -61 -115 -70 -16 -10 -84 -50 -150 -90 -66
-40 -133 -81 -150 -90 -16 -10 -70 -41 -120 -70 -92 -53 -128 -74 -190 -110
308 176 -360 -206 -140 -80 -19 -11 -52 -30 -72 -41 -21 -12 -58 -33 -83 -47
-25 -13 -71 -40 -103 -58 -32 -19 -60 -34 -62 -34 -2 0 -42 -23 -90 -50 -48
-28 -88 -50 -90 -50 -2 0 -26 -13 -52 -28 -26 -16 -84 -48 -128 -72 -80 -44
-115 -63 -180 -100 -96 -55 -113 -65 -155 -88 -25 -14 -103 -59 -175 -100 -71
-41 -144 -83 -161 -92 -17 -10 -62 -37 -100 -60 -38 -24 -89 -55 -114 -70
-116 -70 -319 -202 -379 -245 -97 -71 -175 -129 -181 -135 -3 -3 -39 -33 -80
-67 -132 -106 -227 -221 -248 -296 -14 -49 4 -94 57 -145 60 -58 198 -131 340
-179 58 -19 121 -39 139 -44 33 -9 86 -24 137 -39 60 -17 222 -57 280 -69 33
-7 71 -17 85 -21 31 -10 166 -37 300 -60 36 -6 88 -15 115 -20 28 -5 91 -14
140 -20 50 -6 106 -13 125 -16 81 -12 260 -24 495 -34 524 -22 1024 9 1470 90
28 5 79 14 115 20 62 11 241 51 248 56 2 1 -3 17 -11 36 -46 102 -57 167 -57
323 0 79 5 167 11 197 6 29 15 78 21 108 14 74 80 305 117 410 33 97 169 443
199 511 11 24 42 96 70 159 47 108 62 143 128 288 15 31 34 75 44 97 10 22 33
74 53 115 64 137 109 234 134 290 14 30 52 110 84 178 33 68 59 125 59 127 0
2 32 69 70 149 39 81 70 148 70 151 0 2 16 39 36 82 20 43 50 107 66 143 17
36 45 99 63 140 18 41 44 100 58 130 38 83 60 134 112 255 26 61 56 130 67
154 48 106 269 666 301 761 20 58 46 132 58 165 22 62 76 235 111 360 131 464
194 908 168 1181 -31 330 -113 532 -287 710 -66 68 -210 173 -283 206 -223
103 -432 149 -770 168 -182 10 -213 10 -445 -1z"/>
<path d="M9590 8705 c0 -7 35 -83 78 -167 109 -217 272 -566 272 -583 0 -2 11
-28 24 -57 102 -222 245 -645 304 -898 44 -187 53 -237 77 -415 17 -123 20
-450 6 -536 -5 -30 -14 -88 -21 -129 -29 -180 -116 -393 -221 -543 -65 -92
-193 -223 -289 -296 -66 -49 -213 -141 -227 -141 -3 0 -17 -8 -31 -18 -15 -10
-47 -27 -72 -36 -25 -10 -58 -24 -75 -31 -27 -12 -115 -42 -190 -64 -56 -17
-256 -60 -370 -80 -260 -44 -426 -54 -875 -48 -465 5 -597 14 -1140 77 -80 9
-194 24 -300 39 -140 20 -228 33 -292 42 -157 21 -321 45 -540 79 -38 5 -96
14 -130 19 -35 6 -90 15 -123 21 -87 16 -171 30 -245 40 -99 14 -198 29 -270
40 -135 22 -186 30 -415 61 -70 9 -175 21 -375 40 -174 17 -615 23 -695 9
-170 -29 -241 -54 -275 -98 -44 -55 -14 -189 78 -354 98 -175 468 -643 727
-917 154 -164 461 -459 595 -571 36 -30 67 -57 70 -60 3 -3 41 -35 85 -70 44
-35 82 -67 85 -70 3 -3 39 -30 80 -61 41 -30 109 -80 150 -111 83 -61 390
-267 445 -298 70 -40 101 -58 155 -90 30 -18 71 -42 90 -53 47 -26 312 -164
375 -194 28 -13 58 -28 68 -34 26 -14 34 -5 42 47 7 50 13 66 57 163 72 159
229 328 488 528 67 51 367 254 449 303 25 15 106 64 180 109 73 44 135 81 136
81 2 0 32 17 66 38 35 21 89 52 119 69 30 16 72 40 93 52 89 51 115 65 157 89
25 13 59 32 75 42 17 10 51 29 78 44 26 14 67 37 92 51 25 14 65 36 90 50 25
14 64 36 88 49 23 13 69 38 102 56 78 43 131 72 178 99 20 11 54 31 75 42 20
12 57 33 82 47 25 14 88 50 140 80 134 77 156 90 194 111 18 11 64 38 101 60
37 23 68 41 70 41 1 0 85 50 186 111 101 61 198 120 216 129 71 41 453 292
521 341 28 22 77 57 107 79 92 67 170 125 175 130 3 3 23 19 45 35 36 27 172
139 249 205 186 160 398 384 502 530 21 30 42 60 47 65 88 113 183 324 228
505 27 108 16 353 -20 470 -5 14 -14 43 -21 65 -27 84 -157 328 -190 355 -4 3
-26 32 -50 65 -54 74 -309 330 -410 411 -118 95 -200 157 -270 204 -36 24 -67
46 -70 49 -3 4 -30 22 -60 42 -190 123 -230 149 -236 149 -3 0 -18 8 -32 19
-15 10 -44 28 -64 40 -21 11 -55 31 -75 42 -38 22 -69 39 -178 99 -163 91
-345 177 -345 165z"/>
</g>
</svg>
